<svg xmlns="http://www.w3.org/2000/svg" viewBox="0 0 64 64" width="64" height="64">
  <rect width="64" height="64" rx="14" fill="#171816" />
  <path d="M30.05 50.85L17.70 50.85L17.70 48.80L21.00 48.15Q21.05 46.30 21.05 44.13Q21.05 41.95 21.05 40.35L21.05 40.35L21.05 18.85L17.40 18.35L17.40 16.40L26.30 14.15L27.05 14.60L26.85 21.70L26.85 30.65Q30.75 26.20 35.45 26.20L35.45 26.20Q38.70 26.20 40.47 28.35Q42.25 30.50 42.25 35.15L42.25 35.15L42.25 40.35Q42.25 42.05 42.25 44.17Q42.25 46.30 42.30 48.20L42.30 48.20L45.40 48.80L45.40 50.85L33.05 50.85L33.05 48.80L36.25 48.15Q36.30 46.30 36.30 44.17Q36.30 42.05 36.30 40.35L36.30 40.35L36.30 35.65Q36.30 32.65 35.52 31.52Q34.75 30.40 32.85 30.40L32.85 30.40Q30.10 30.40 27.00 33.30L27.00 33.30L27.00 40.35Q27.00 42 27.00 44.15Q27.00 46.30 27.05 48.20L27.05 48.20L30.05 48.80L30.05 50.85Z" fill="#f6f6f3" />
</svg>
